<mxfile host="app.diagrams.net" modified="2022-12-04T02:03:13.470Z" agent="5.0 (Windows NT 10.0; Win64; x64) AppleWebKit/537.36 (KHTML, like Gecko) Chrome/108.0.0.0 Safari/537.36" etag="l3QGiPe2o3ukv053BqDZ" version="20.6.0" type="github">
  <diagram id="nFIZ45813MmQvuqcwIcJ" name="페이지-1">
    <mxGraphModel dx="1422" dy="754" grid="1" gridSize="10" guides="1" tooltips="1" connect="1" arrows="1" fold="1" page="1" pageScale="1" pageWidth="827" pageHeight="1169" math="0" shadow="0">
      <root>
        <mxCell id="0" />
        <mxCell id="1" parent="0" />
        <mxCell id="eDgcMOc7iT8un0nYcHqt-1" value="" style="shape=hexagon;perimeter=hexagonPerimeter2;whiteSpace=wrap;html=1;fixedSize=1;rotation=90;size=137.5;fillColor=#FF6445;strokeColor=none;" parent="1" vertex="1">
          <mxGeometry x="322.5" y="487.5" width="335" height="80" as="geometry" />
        </mxCell>
        <mxCell id="eDgcMOc7iT8un0nYcHqt-2" value="" style="shape=hexagon;perimeter=hexagonPerimeter2;whiteSpace=wrap;html=1;fixedSize=1;rotation=-240;size=122.5;fillColor=#FF6445;strokeColor=none;" parent="1" vertex="1">
          <mxGeometry x="414" y="522" width="305" height="80" as="geometry" />
        </mxCell>
        <mxCell id="eDgcMOc7iT8un0nYcHqt-3" value="" style="shape=hexagon;perimeter=hexagonPerimeter2;whiteSpace=wrap;html=1;fixedSize=1;rotation=60;size=122.5;fillColor=#FF6445;strokeColor=none;" parent="1" vertex="1">
          <mxGeometry x="262" y="524" width="305" height="80" as="geometry" />
        </mxCell>
        <mxCell id="eDgcMOc7iT8un0nYcHqt-4" value="" style="shape=hexagon;perimeter=hexagonPerimeter2;whiteSpace=wrap;html=1;fixedSize=1;rotation=27;size=122.5;fillColor=#FF6445;strokeColor=none;" parent="1" vertex="1">
          <mxGeometry x="242.37" y="595.45" width="263.37" height="80" as="geometry" />
        </mxCell>
        <mxCell id="eDgcMOc7iT8un0nYcHqt-5" value="" style="shape=hexagon;perimeter=hexagonPerimeter2;whiteSpace=wrap;html=1;fixedSize=1;rotation=60;size=330.6300000000001;direction=south;fillColor=#FF6445;strokeColor=none;" parent="1" vertex="1">
          <mxGeometry x="562.995" y="496.99500000000006" width="80" height="263.37" as="geometry" />
        </mxCell>
        <mxCell id="eDgcMOc7iT8un0nYcHqt-6" value="" style="shape=hexagon;perimeter=hexagonPerimeter2;whiteSpace=wrap;html=1;fixedSize=1;rotation=130;size=330.6300000000001;direction=south;fillColor=#FF6445;strokeColor=none;" parent="1" vertex="1">
          <mxGeometry x="507.23" y="659.32" width="55.76" height="131.57" as="geometry" />
        </mxCell>
        <mxCell id="eDgcMOc7iT8un0nYcHqt-7" value="" style="shape=hexagon;perimeter=hexagonPerimeter2;whiteSpace=wrap;html=1;fixedSize=1;rotation=-130;size=330.6300000000001;direction=south;fillColor=#FF6445;strokeColor=none;" parent="1" vertex="1">
          <mxGeometry x="423" y="659.32" width="55.76" height="131.57" as="geometry" />
        </mxCell>
        <mxCell id="eDgcMOc7iT8un0nYcHqt-8" value="" style="shape=hexagon;perimeter=hexagonPerimeter2;whiteSpace=wrap;html=1;fixedSize=1;rotation=95;size=330.6300000000001;direction=south;fillColor=#FF6445;strokeColor=none;" parent="1" vertex="1">
          <mxGeometry x="569" y="592.01" width="65.48" height="214.37" as="geometry" />
        </mxCell>
        <mxCell id="eDgcMOc7iT8un0nYcHqt-10" value="" style="shape=hexagon;perimeter=hexagonPerimeter2;whiteSpace=wrap;html=1;fixedSize=1;rotation=-97;size=190.00000000000006;direction=south;fillColor=#FF6445;strokeColor=none;" parent="1" vertex="1">
          <mxGeometry x="345.52" y="598" width="65.48" height="214.37" as="geometry" />
        </mxCell>
        <mxCell id="Xbd4nY5SMMlbj2TtGeyw-1" value="" style="shape=trapezoid;perimeter=trapezoidPerimeter;whiteSpace=wrap;html=1;fixedSize=1;fillColor=#FF6445;strokeColor=none;" parent="1" vertex="1">
          <mxGeometry x="473.76" y="679" width="38.24" height="150" as="geometry" />
        </mxCell>
        <mxCell id="Xbd4nY5SMMlbj2TtGeyw-2" value="" style="ellipse;whiteSpace=wrap;html=1;fillColor=#FF6445;strokeColor=none;" parent="1" vertex="1">
          <mxGeometry x="473.76" y="820" width="38.24" height="20" as="geometry" />
        </mxCell>
      </root>
    </mxGraphModel>
  </diagram>
</mxfile>
